<svg width="40" height="52" fill="none" xmlns="http://www.w3.org/2000/svg"><path d="M16.977 2.935h.136c.253 0 .527.025.797.048 1.193.084 2.377.263 3.542.534V.654A21.09 21.09 0 0017.797.07 29.24 29.24 0 0016.319 0h-.427c-2.475.01-4.94.327-7.337.946-2.73.68-5.35 1.747-7.784 3.166v28.397a31.634 31.634 0 017.42-2.892 32.36 32.36 0 016.228-.956h.084c.351-.018.703-.028 1.065-.03v-2.91a34.328 34.328 0 00-8.095 1.076c-.98.255-1.925.53-2.813.834l-1.012.344V5.833l.432-.208a28.275 28.275 0 0110.516-2.683.627.627 0 01.091 0c.403-.02.808-.03 1.205-.03h.455c.21.005.42.01.63.023z" fill="#AFB1B8"/><path d="M24.111 5.933a25.915 25.915 0 01-4.235-.344c-.45-.076-.893-.168-1.323-.267v28.072c1.82.45 3.69.67 5.566.656a29.943 29.943 0 007.336-.944 29.814 29.814 0 007.786-3.166V2.05a31.774 31.774 0 01-7.417 2.893c-2.52.648-5.111.98-7.713.99zm11.224.485l1.012-.34v22.148l-.432.209a27.761 27.761 0 01-5.174 1.859c-2.163.56-4.386.847-6.62.857-.668 0-1.33-.028-1.973-.084l-.693-.061V8.228l.807.054c.587.038 1.194.056 1.854.056a34.263 34.263 0 008.406-1.078 44.55 44.55 0 002.813-.842zM2.737 42.212a1.492 1.492 0 00-1.125-.455 1.673 1.673 0 00-.65.122 1.463 1.463 0 00-.832.842c-.08.2-.12.413-.117.628v3.794c-.01.267.042.533.149.778.09.195.219.368.38.509.151.127.33.22.52.27.185.051.376.078.567.078.212.002.42-.043.612-.132a1.599 1.599 0 00.96-1.465v-.424h-.992v.338a.881.881 0 01-.059.338.608.608 0 01-.144.214.697.697 0 01-.415.145.503.503 0 01-.465-.204.899.899 0 01-.132-.508v-3.538c-.006-.196.036-.39.122-.567a.507.507 0 01.485-.229.527.527 0 01.443.214.806.806 0 01.165.509v.328h.981v-.387a1.788 1.788 0 00-.121-.664 1.562 1.562 0 00-.332-.534zM8.629 42.17a1.766 1.766 0 00-1.129-.418c-.202.001-.402.037-.592.107A1.558 1.558 0 006 42.7c-.1.231-.149.482-.144.735v3.638c-.007.256.042.51.144.745.09.196.221.37.385.51.151.14.33.249.523.32a1.712 1.712 0 001.72-.32c.159-.143.286-.316.375-.51.102-.234.151-.489.144-.745v-3.639a1.77 1.77 0 00-.144-.734 1.641 1.641 0 00-.374-.532zm-.463 4.904a.654.654 0 01-.198.527.726.726 0 01-.933 0 .65.65 0 01-.197-.527v-3.639a.654.654 0 01.197-.526.726.726 0 01.933 0 .65.65 0 01.198.526v3.64zM16.367 48.7v-6.89h-.953l-1.252 3.647h-.018l-1.262-3.646h-.944v6.888h.984v-4.19h.018l.964 2.962h.49l.972-2.962h.018v4.19h.983zM21.958 42.294c-.151-.17-.343-.3-.556-.377a2.184 2.184 0 00-.714-.107h-1.462v6.89h.982v-2.691h.506c.306.014.61-.051.885-.188a1.43 1.43 0 00.539-.527c.113-.183.19-.387.225-.6a4.9 4.9 0 00.053-.783c.01-.33-.023-.662-.096-.984a1.465 1.465 0 00-.362-.633zm-.506 2.1a.868.868 0 01-.09.359.552.552 0 01-.254.241 1.006 1.006 0 01-.463.087h-.447v-2.342h.505a.942.942 0 01.443.086.556.556 0 01.23.254c.054.121.083.252.086.384v.458c0 .16.01.326 0 .473h-.01zM26.607 41.81h-.804l-1.518 6.89h.982l.288-1.48h1.338l.289 1.48h.981l-1.556-6.89zm-.905 4.471l.483-2.497h.018l.48 2.497h-.981zM32.95 45.96h-.018l-1.483-4.15h-.943v6.89h.981v-4.143h.02l1.5 4.142h.924v-6.888h-.981v4.15zM38.948 41.81l-.79 2.74h-.02l-.79-2.74H36.31l1.348 3.978v2.911h.982v-2.911l1.348-3.977h-1.04zM0 50.645h.473v1.327h.321v-1.328h.47v-.272H0v.273zM3.977 50.372l-.62 1.6h.341l.132-.364h.637l.137.364h.35l-.636-1.6h-.341zm-.05.967l.217-.593.217.593h-.435zM7.908 51.382h.37v.206a.613.613 0 01-.38.135.404.404 0 01-.34-.153.669.669 0 01-.118-.417c0-.356.154-.534.46-.534a.337.337 0 01.362.255l.316-.062c-.068-.312-.293-.47-.678-.47a.804.804 0 00-.559.206.78.78 0 00-.23.615.873.873 0 00.205.6.776.776 0 00.607.235.96.96 0 00.678-.255v-.63h-.693v.27zM11.922 50.372H11.6v1.6h1.12V51.7h-.797v-1.328zM15.318 50.372h-.324v1.6h.324v-1.6zM18.636 51.44l-.655-1.068h-.314v1.6h.301v-1.045l.643 1.045h.321v-1.6h-.296v1.069zM21.637 51.267h.797v-.272h-.797v-.35h.857v-.273h-1.181v1.6h1.214V51.7h-.89v-.433zM28.912 51.003h-.63v-.63h-.321v1.599h.321v-.7h.63v.7h.321v-1.6h-.32v.631zM31.93 51.267h.8v-.272h-.8v-.35h.86v-.273H31.61v1.6h1.212V51.7h-.89v-.433zM36.023 51.268c.279-.044.42-.191.42-.445a.383.383 0 00-.156-.356.903.903 0 00-.468-.094h-.678v1.6h.32v-.67h.064a.43.43 0 01.2.036c.047.029.086.069.114.117l.349.508h.384l-.194-.312a1.113 1.113 0 00-.355-.384zm-.323-.222h-.238v-.401h.253a.837.837 0 01.326.038.208.208 0 01.046.256.209.209 0 01-.061.07.91.91 0 01-.326.037zM39.11 51.267h.796v-.272h-.797v-.35h.86v-.273h-1.183v1.6H40V51.7h-.89v-.433z" fill="#AFB1B8"/></svg>